<?xml version="1.0" encoding="UTF-8"?>
<svg xmlns="http://www.w3.org/2000/svg" xmlns:xlink="http://www.w3.org/1999/xlink" viewBox="0 0 64 64" width="64px" height="64px">
<g id="surface36744135">
<path style=" stroke:none;fill-rule:nonzero;fill:rgb(88.235295%,19.215687%,27.450982%);fill-opacity:1;" d="M 16.640625 2.558594 C 15.933594 2.558594 15.359375 3.132812 15.359375 3.839844 L 15.359375 60.160156 C 15.359375 60.617188 15.605469 61.042969 16.003906 61.269531 C 16.402344 61.496094 16.890625 61.496094 17.285156 61.265625 L 32 52.683594 L 46.714844 61.265625 C 46.914062 61.382812 47.136719 61.441406 47.359375 61.441406 C 47.582031 61.441406 47.800781 61.382812 47.996094 61.269531 C 48.394531 61.042969 48.640625 60.617188 48.640625 60.160156 L 48.640625 43.238281 C 49.472656 43.410156 50.332031 43.503906 51.214844 43.503906 C 58.253906 43.503906 64.015625 37.746094 64.015625 30.703125 C 64.015625 23.664062 58.253906 17.90625 51.214844 17.90625 C 50.332031 17.90625 49.472656 17.996094 48.640625 18.167969 L 48.640625 3.839844 C 48.640625 3.132812 48.066406 2.558594 47.359375 2.558594 Z M 51.214844 20.464844 C 56.847656 20.464844 61.453125 25.074219 61.453125 30.703125 C 61.453125 36.335938 56.847656 40.945312 51.214844 40.945312 C 45.582031 40.945312 40.976562 36.335938 40.976562 30.703125 C 40.976562 25.074219 45.582031 20.464844 51.214844 20.464844 Z M 51.214844 23.152344 C 50.445312 23.152344 49.933594 23.664062 49.933594 24.433594 L 49.933594 29.425781 L 44.941406 29.425781 C 44.175781 29.425781 43.664062 29.9375 43.664062 30.703125 C 43.664062 31.472656 44.175781 31.984375 44.941406 31.984375 L 49.933594 31.984375 L 49.933594 36.976562 C 49.933594 37.746094 50.445312 38.257812 51.214844 38.257812 C 51.984375 38.257812 52.496094 37.746094 52.496094 36.976562 L 52.496094 31.984375 L 57.488281 31.984375 C 58.253906 31.984375 58.765625 31.472656 58.765625 30.703125 C 58.765625 29.9375 58.253906 29.425781 57.488281 29.425781 L 52.496094 29.425781 L 52.496094 24.433594 C 52.496094 23.664062 51.984375 23.152344 51.214844 23.152344 Z M 51.214844 23.152344 "/>
</g>
</svg>
